# xmcd
#
# Track frame offsets:
# 180
# 16860
# 30117
# 42198
# 55299
# 68689
# 81149
# 98002
# 114672
# 128224
# 140671
# 157749
# 177869
# 191289
# 204788
# 218702
#
# Disc length: 3101 seconds
#
#
# Revision: 0
# Processed by: cddbd v1.4PL0 Copyright (c) Steve Scherf et al.
# Submitted via: FreeRIP 2.30 
#
DISCID=c30c1b10
DTITLE=Barb Donovan - Angelina
DYEAR=1996
DGENRE=Folk/Rock
TTITLE0=Angelina
TTITLE1=Lucky This Time
TTITLE2=I'll Be Here In The Morning featuring Townes Van Zandt
TTITLE3=When Hell Freezes Over
TTITLE4=Only an Angel
TTITLE5=Factory Town
TTITLE6=Restless Soul
TTITLE7=Love You Blind
TTITLE8=Can't Move My Heart
TTITLE9=Dressed To Kill
TTITLE10=Broken Heart
TTITLE11=Drive Me Crazy
TTITLE12=If You Only Knew
TTITLE13=Sometimes When The Morning Comes
TTITLE14=Wash My Sins Away
TTITLE15=Imperfect Man
EXTD=
EXTT0=
EXTT1=
EXTT2=
EXTT3=
EXTT4=
EXTT5=
EXTT6=
EXTT7=
EXTT8=
EXTT9=
EXTT10=
EXTT11=
EXTT12=
EXTT13=
EXTT14=
EXTT15=
PLAYORDER=
